@startuml
'https://plantuml.com/class-diagram

'abstract class AbstractList
'abstract AbstractCollection
interface RouteDefinitionLocator
interface RouteDefinitionRepository
class PropertiesRouteDefinitionLocator
class CachingRouteDefinitionLocator
class CompositeRouteDefinitionLocator
class DiscoveryClientRouteDefinitionLocator
class InMemoryRouteDefinitionRepository

RouteDefinitionLocator <|-- PropertiesRouteDefinitionLocator
RouteDefinitionLocator <|-- CachingRouteDefinitionLocator
RouteDefinitionLocator <|-- CompositeRouteDefinitionLocator
RouteDefinitionLocator <|-- DiscoveryClientRouteDefinitionLocator
RouteDefinitionLocator <|-- RouteDefinitionRepository
RouteDefinitionRepository <|-- InMemoryRouteDefinitionRepository
RouteDefinitionRepository <|-- RedisRouteDefinitionRepository

'class ArrayList {
'Object[] elementData
'size()
'}
'
'enum TimeUnit {
'DAYS
'HOURS
'MINUTES
'}

@enduml